<svg xmlns="http://www.w3.org/2000/svg" width="256" height="256" viewBox="0 0 256 256">
  <defs>
    <linearGradient id="bg" x1="32" y1="24" x2="224" y2="232" gradientUnits="userSpaceOnUse">
      <stop stop-color="#1473e6"/>
      <stop offset="1" stop-color="#7048e8"/>
    </linearGradient>
    <linearGradient id="drop" x1="86" y1="78" x2="159" y2="194" gradientUnits="userSpaceOnUse">
      <stop stop-color="#fff"/>
      <stop offset="1" stop-color="#dce7ff"/>
    </linearGradient>
  </defs>
  <rect x="12" y="12" width="232" height="232" rx="54" fill="url(#bg)"/>
  <path d="M52 65h42M52 65v42M204 65h-42M204 65v42M52 191h42M52 191v-42M204 191h-42M204 191v-42" fill="none" stroke="#fff" stroke-width="12" stroke-linecap="round" opacity=".9"/>
  <path d="M128 59c-23 34-51 65-51 96 0 30 23 53 51 53s51-23 51-53c0-31-28-62-51-96Z" fill="url(#drop)"/>
  <circle cx="128" cy="155" r="23" fill="#ff4d67"/>
  <path d="M103 155h50M128 130v50" stroke="#fff" stroke-width="5" stroke-linecap="round"/>
</svg>
