<svg version="1.1" xmlns="http://www.w3.org/2000/svg" style="display: block;" viewBox="0 0 2048 2048" width="1254" height="1254" preserveAspectRatio="none">
<defs>
	<linearGradient id="Gradient1" gradientUnits="userSpaceOnUse" x1="1689.41" y1="914.162" x2="1109.84" y2="874.344">
		<stop class="stop0" offset="0" stop-opacity="1" stop-color="rgb(255,199,84)"/>
		<stop class="stop1" offset="1" stop-opacity="1" stop-color="rgb(254,241,147)"/>
	</linearGradient>
	<linearGradient id="Gradient2" gradientUnits="userSpaceOnUse" x1="1007.62" y1="2049.57" x2="1039.58" y2="-2.58166">
		<stop class="stop0" offset="0" stop-opacity="1" stop-color="rgb(26,104,218)"/>
		<stop class="stop1" offset="1" stop-opacity="1" stop-color="rgb(54,134,251)"/>
	</linearGradient>
	<mask id="edgeMask" maskUnits="userSpaceOnUse" x="0" y="0" width="2048" height="2048">
		<rect width="2048" height="2048" fill="white"/>
		<path fill="black" d="M 0 0 L 698.311 0 L 697.23 0.153643 C 681.41 2.24119 656.179 1.64373 639.68 2.17883 C 611.088 3.1736 582.528 4.95241 554.034 7.51325 C 368.61 23.7811 237.43 79.0478 119.601 228.727 C 37.0759 333.558 14.8338 447.489 4.7994 578.001 C 3.32844 598.766 2.33583 619.561 1.82234 640.371 C 1.60985 647.632 1.26525 670.738 0 677.476 L 0 0 z"/>
		<path fill="black" d="M 1342.65 0 L 2048 0 L 2048 674.432 C 2046.9 668.143 2046.61 645.624 2046.34 638.286 C 2045.61 615.812 2044.43 593.355 2042.82 570.927 C 2032.8 438.416 2008.69 327.964 1924.82 221.471 C 1899.43 189.392 1870.78 160.029 1839.34 133.852 C 1730.15 42.8363 1617.48 17.1334 1478.96 6.0352 C 1453.01 4.00779 1427.02 2.63916 1401.01 1.93061 C 1384.98 1.57851 1358.6 2.02175 1343.66 0.138129 L 1342.65 0 z"/>
		<path fill="black" d="M 0 1367.66 L 0.144574 1368.75 C 1.68551 1381.21 1.84533 1407.07 2.23068 1420.38 C 2.92461 1445.63 4.35879 1470.84 6.53138 1496.01 C 10.9656 1546.04 17.3333 1597.63 30.8483 1646.26 C 60.9014 1754.41 127.09 1849.51 214.53 1919.08 C 330.698 2011.51 444.934 2033.19 589.351 2042.87 C 612.413 2044.5 635.509 2045.63 658.62 2046.27 C 665.415 2046.48 694.576 2046.93 700.053 2048 L 0 2048 L 0 1367.66 z"/>
		<path fill="black" d="M 2048 1376.87 L 2048 2048 L 1344.6 2048 C 1353.21 2046.65 1376.82 2046.74 1386.45 2046.5 C 1408.15 2046 1429.85 2045 1451.51 2043.5 C 1598.28 2034.38 1716.95 2014.04 1834.73 1919.45 C 1922.16 1850.4 1985.83 1755.76 2016.84 1648.75 C 2036.6 1578.79 2042.05 1504.31 2045.81 1432.02 C 2046.72 1414.66 2045.91 1394.97 2047.87 1377.93 L 2048 1376.87 z"/>
	</mask>
</defs>
<g mask="url(#edgeMask)">
<path transform="translate(0,0)" fill="url(#Gradient2)" d="M 0 0 L 698.311 0 L 1342.65 0 L 2048 0 L 2048 674.432 L 2048 1376.87 L 2048 2048 L 1344.6 2048 L 700.053 2048 L 0 2048 L 0 1367.66 L 0 677.476 L 0 0 z"/>
<path transform="translate(0,0)" fill="rgb(43,59,79)" d="M 705.215 652.569 L 705.048 588.251 C 704.98 545.033 704.727 514.068 732.642 478.066 C 767.578 433.01 805.288 421.841 859.468 421.819 L 1109.98 421.83 L 1175.08 421.825 C 1228.02 421.848 1261.39 422.917 1301.7 462.964 C 1343.44 504.431 1342.14 542.127 1342.01 595.884 L 1341.78 670.355 C 1341.73 676.412 1340.63 694.506 1342.46 698.865 C 1349.03 686.343 1356.09 669.939 1362.27 656.716 L 1396.53 583.845 C 1404.9 565.941 1416.6 535.767 1429.41 521.202 C 1443.55 505.127 1471.74 501.007 1491.5 509.81 C 1520.75 522.838 1550.3 537.05 1579.82 550.434 L 1654.5 584.478 C 1674.17 593.555 1693.72 599.787 1708.57 615.962 C 1722.3 630.115 1727.43 659.372 1719.57 676.874 C 1684.5 754.929 1644.34 832.997 1609.73 911.044 C 1627.4 946.68 1647.09 996.568 1662.99 1033.89 L 1688.69 1095.04 C 1696.84 1114.59 1707.57 1135.04 1706.01 1156.73 C 1707.74 1180.51 1706.47 1216.21 1706.47 1240.91 L 1705.98 1416.26 L 1706.13 1558.09 C 1706.15 1625.04 1710.63 1674.69 1662.56 1729.45 C 1629.7 1766.89 1587.9 1792.05 1536.97 1793.1 C 1514.86 1793.56 1492.8 1793.15 1470.78 1793.12 L 1337.01 1793.08 L 908.334 1793.1 L 627.551 1793.11 L 547.864 1793.1 C 530.695 1793.09 509.228 1794.01 492.675 1791.38 C 415.323 1779.13 346.901 1707.4 342.282 1628.5 C 340.959 1605.91 341.883 1579.92 341.908 1557.04 L 342.125 1424.48 C 342.153 1390.17 340.368 1355.96 341.125 1321.66 C 342.209 1272.53 340.459 1222.61 341.913 1173.57 C 340.193 1166.75 342.957 1139.28 345.374 1132.06 C 349.382 1120.08 355.561 1105.78 360.474 1093.86 C 370.034 1070.18 379.952 1046.64 390.226 1023.25 C 409.246 979.863 427.725 934.138 446.241 890.323 C 425.57 857.233 386.07 816.548 431.782 784.48 C 414.597 758.476 395.667 732.939 377.812 707.386 C 370.021 696.235 358.457 681.357 351.669 670.13 C 333.488 639.568 328.151 603.049 336.825 568.562 C 345.493 534.411 368.792 504.346 398.981 486.399 C 428.434 468.784 463.688 463.618 496.956 472.042 C 553.472 486.55 575.702 526.978 603.181 572.379 L 645.308 643.456 C 668.198 628.451 687.259 632.651 705.215 652.569 z"/>
<path transform="translate(0,0)" fill="rgb(30,43,59)" d="M 1706.01 1156.73 C 1707.74 1180.51 1706.47 1216.21 1706.47 1240.91 L 1705.98 1416.26 L 1706.13 1558.09 C 1706.15 1625.04 1710.63 1674.69 1662.56 1729.45 C 1629.7 1766.89 1587.9 1792.05 1536.97 1793.1 C 1514.86 1793.56 1492.8 1793.15 1470.78 1793.12 L 1337.01 1793.08 L 908.334 1793.1 L 627.551 1793.11 L 547.864 1793.1 C 530.695 1793.09 509.228 1794.01 492.675 1791.38 C 415.323 1779.13 346.901 1707.4 342.282 1628.5 C 340.959 1605.91 341.883 1579.92 341.908 1557.04 L 342.125 1424.48 C 342.153 1390.17 340.368 1355.96 341.125 1321.66 C 342.209 1272.53 340.459 1222.61 341.913 1173.57 C 344.322 1178.96 346.784 1192.68 349.151 1199.96 C 351.969 1208.62 360.936 1222.77 363.224 1229.13 C 365.24 1237.04 371.624 1244.56 376.575 1251.13 C 378.372 1269.73 377.237 1287.47 378.027 1305.97 C 380.806 1371.09 363.746 1424.65 420.19 1471.28 C 436.344 1484.66 455.704 1493.61 476.365 1497.24 C 497.419 1500.89 527.452 1499.72 549.603 1499.72 L 657.151 1499.75 L 803.454 1499.69 C 825.133 1499.66 860.413 1500.65 880.676 1499.09 C 880.692 1467.79 873.741 1409.21 895.809 1386.81 C 896.335 1386.28 896.87 1385.76 897.414 1385.25 C 897.222 1392.36 896.928 1397.45 897.88 1404.52 C 897.887 1398.74 897.691 1392.69 898.143 1386.95 C 901.577 1343.37 939.652 1348.12 970.535 1348.16 L 1022.64 1348.17 L 1077.84 1348.18 C 1111.55 1348.2 1141.98 1343.3 1149.71 1385.72 C 1151.4 1386.43 1152.66 1387.4 1153.9 1388.74 C 1168.69 1404.59 1166.68 1428.29 1166.84 1448.24 C 1166.98 1465.54 1166.86 1482.55 1166.77 1499.71 L 1432.46 1499.8 L 1508.16 1499.7 C 1530.17 1499.67 1556.35 1500.91 1577.53 1496.01 C 1615.86 1487.13 1652.19 1456.26 1664.7 1418.61 C 1670.31 1401.73 1669.12 1377.83 1669.21 1359.93 L 1669.46 1304.98 C 1669.63 1285.71 1671.03 1269.32 1671.54 1250.58 C 1682.58 1239.39 1705.88 1199.01 1703.09 1183.71 C 1704.85 1174.39 1704.64 1166.08 1706.01 1156.73 z"/>
<path transform="translate(0,0)" fill="rgb(38,119,242)" d="M 897.88 1404.52 C 897.887 1398.74 897.691 1392.69 898.143 1386.95 C 901.577 1343.37 939.652 1348.12 970.535 1348.16 L 1022.64 1348.17 L 1077.84 1348.18 C 1111.55 1348.2 1141.98 1343.3 1149.71 1385.72 C 1149.75 1395.69 1150.21 1411.52 1149.15 1421.06 L 1148.45 1415.48 C 1147.12 1417.89 1147.35 1431.73 1146.81 1436.37 C 1146.56 1441.72 1145.91 1479.64 1146.79 1483.16 C 1144.04 1491.38 1138.59 1495.89 1130.99 1499.81 C 1129.44 1500.6 1127.86 1501.31 1126.25 1501.96 L 1126.1 1582.9 C 1110.28 1607.76 1098.69 1610.36 1070.21 1609.64 C 1031.85 1608.66 992.338 1611.15 954.048 1608.32 C 936.486 1607.02 931.006 1595.52 921.706 1583 C 920.345 1556.56 921.663 1528.72 920.951 1501.94 C 908.235 1496.12 900.738 1489.85 898.414 1475.49 C 897.332 1452.57 898.379 1427.82 897.88 1404.52 z"/>
<path transform="translate(0,0)" fill="rgb(153,211,253)" d="M 897.88 1404.52 C 897.887 1398.74 897.691 1392.69 898.143 1386.95 C 901.577 1343.37 939.652 1348.12 970.535 1348.16 L 1022.64 1348.17 L 1077.84 1348.18 C 1111.55 1348.2 1141.98 1343.3 1149.71 1385.72 C 1149.75 1395.69 1150.21 1411.52 1149.15 1421.06 L 1148.45 1415.48 C 1147.12 1417.89 1147.35 1431.73 1146.81 1436.37 C 1145.37 1423.86 1147.94 1409.68 1143.28 1397.65 C 1137.76 1383.83 1124.35 1374.81 1109.42 1374.66 C 1052.11 1374.1 994.595 1373.79 937.294 1374.73 C 931.118 1374.83 926.377 1376.58 920.835 1378.92 C 884.783 1403.93 908.366 1467.41 898.579 1475.46 L 898.414 1475.49 C 897.332 1452.57 898.379 1427.82 897.88 1404.52 z"/>
<path transform="translate(0,0)" fill="rgb(50,135,253)" d="M 898.414 1475.49 L 898.579 1475.46 C 908.366 1467.41 884.783 1403.93 920.835 1378.92 C 921.573 1416.58 922.206 1464.42 920.951 1501.94 C 908.235 1496.12 900.738 1489.85 898.414 1475.49 z"/>
<path transform="translate(0,0)" fill="rgb(6,79,176)" d="M 921.706 1583 C 931.006 1595.52 936.486 1607.02 954.048 1608.32 C 992.338 1611.15 1031.85 1608.66 1070.21 1609.64 C 1098.69 1610.36 1110.28 1607.76 1126.1 1582.9 C 1126.21 1585.66 1126.26 1588.42 1126.24 1591.18 C 1126.04 1619.58 1109.71 1635.63 1081.85 1635.89 C 1043.62 1636.04 1005.32 1636.23 967.095 1635.94 C 932.401 1635.69 920.003 1615.4 921.706 1583 z"/>
<path transform="translate(0,0)" fill="rgb(153,211,253)" d="M 1146.81 1436.37 C 1147.35 1431.73 1147.12 1417.89 1148.45 1415.48 L 1149.15 1421.06 C 1149.68 1434.35 1150.72 1472.48 1146.79 1483.16 C 1145.91 1479.64 1146.56 1441.72 1146.81 1436.37 z"/>
<path transform="translate(0,0)" fill="rgb(43,59,79)" d="M 380.952 1472.51 C 382.966 1473.85 395.21 1485.94 397.939 1488.41 C 415.408 1504.2 433.173 1513.94 455.724 1520.56 C 480.69 1527.89 508.874 1526.31 535.011 1526.32 L 599.153 1526.28 L 792.356 1526.23 C 806.126 1526.25 883.29 1524.8 887.583 1528.07 C 896.77 1542.61 886.27 1596.91 894.377 1616.63 C 909.517 1653.46 933.206 1666.75 972.414 1667 L 1041.41 1667.05 C 1060.81 1667.03 1086.38 1668.33 1104.88 1663.78 C 1114.91 1661.3 1128.02 1652.78 1135.28 1645.33 C 1157.04 1622.98 1156.23 1602.02 1156.17 1573.49 L 1156.09 1532.92 L 1162.07 1526.39 L 1434.83 1526.25 L 1517.01 1526.24 C 1532.93 1526.27 1554.6 1526.83 1569.95 1525.19 C 1604.82 1521.45 1644.1 1499.8 1665.93 1472.17 C 1666.49 1498.03 1666.58 1523.89 1666.2 1549.75 L 1666.28 1568.02 C 1666.34 1583.37 1667.48 1602.64 1665.19 1617.56 C 1653.25 1695.29 1594.04 1747.87 1516.55 1748.09 L 797.869 1748.09 L 603.226 1748.05 C 537.204 1748.09 475.426 1758.44 424.519 1705.2 C 378.748 1657.32 381.018 1617.79 380.947 1556.69 L 380.952 1472.51 z"/>
<path transform="translate(0,0)" fill="rgb(38,119,242)" d="M 705.215 652.569 L 705.048 588.251 C 704.98 545.033 704.727 514.068 732.642 478.066 C 767.578 433.01 805.288 421.841 859.468 421.819 L 1109.98 421.83 L 1175.08 421.825 C 1228.02 421.848 1261.39 422.917 1301.7 462.964 C 1343.44 504.431 1342.14 542.127 1342.01 595.884 L 1341.78 670.355 C 1341.73 676.412 1340.63 694.506 1342.46 698.865 L 1341.41 700.981 C 1338.27 707.917 1326.95 734.092 1323.86 739.086 C 1318.63 750.678 1307.52 777.037 1301.77 786.966 L 1080.5 1267.36 C 1074.38 1268.32 895.282 1267.36 893.346 1266.58 C 907.003 1259.48 916.79 1249.31 920.418 1233.91 C 926.542 1207.92 904.827 1184.37 891.113 1163.51 C 892.775 1156.91 894.375 1150.3 895.912 1143.67 C 910.121 1080.86 869.983 1042.18 839.088 992.447 C 796.186 923.389 748.764 856.607 705.295 787.934 C 704.167 786.7 699.737 779.512 698.561 777.678 C 707.185 774.148 727.555 758.254 735.131 751.97 C 740.273 747.706 743.334 740.064 745.485 733.758 C 748.569 718.647 743.848 711.858 736.17 699.763 C 728.35 686.848 718.221 672.979 709.783 659.901 C 708.233 657.617 706.674 654.949 705.215 652.569 z"/>
<path transform="translate(0,0)" fill="rgb(13,25,37)" d="M 705.295 787.934 L 706.373 786.665 C 708.064 786.139 1296 784.955 1301.77 786.966 L 1080.5 1267.36 C 1074.38 1268.32 895.282 1267.36 893.346 1266.58 C 907.003 1259.48 916.79 1249.31 920.418 1233.91 C 926.542 1207.92 904.827 1184.37 891.113 1163.51 C 892.775 1156.91 894.375 1150.3 895.912 1143.67 C 910.121 1080.86 869.983 1042.18 839.088 992.447 C 796.186 923.389 748.764 856.607 705.295 787.934 z"/>
<path transform="translate(0,0)" fill="rgb(43,59,79)" d="M 736.17 699.763 L 814.796 699.952 L 847.942 700.006 L 1199.88 700.024 L 1232.2 699.963 C 1263.62 699.898 1310.25 698.288 1340.37 700.159 L 1341.41 700.981 C 1338.27 707.917 1326.95 734.092 1323.86 739.086 C 1318.63 750.678 1307.52 777.037 1301.77 786.966 C 1296 784.955 708.064 786.139 706.373 786.665 L 705.295 787.934 C 704.167 786.7 699.737 779.512 698.561 777.678 C 707.185 774.148 727.555 758.254 735.131 751.97 C 740.273 747.706 743.334 740.064 745.485 733.758 C 748.569 718.647 743.848 711.858 736.17 699.763 z"/>
<path transform="translate(0,0)" fill="rgb(66,83,104)" d="M 736.17 699.763 L 814.796 699.952 L 847.942 700.006 L 1199.88 700.024 L 1232.2 699.963 C 1263.62 699.898 1310.25 698.288 1340.37 700.159 L 1341.41 700.981 C 1338.27 707.917 1326.95 734.092 1323.86 739.086 C 1320.14 737.31 1235.14 738.115 1223.21 738.113 L 911.118 738.07 C 897.11 738.067 749.853 739.085 745.83 736.452 L 745.485 733.758 C 748.569 718.647 743.848 711.858 736.17 699.763 z"/>
<path transform="translate(0,0)" fill="rgb(38,119,242)" d="M 847.942 700.006 L 847.736 642.37 C 847.683 620.923 843.181 585.87 873.513 582.336 C 885.476 580.942 901.449 581.894 913.854 581.893 L 993.174 581.885 L 1111.33 581.891 C 1128.22 581.893 1155.22 581.052 1171.37 582.056 C 1179.44 582.486 1187.01 586.131 1192.38 592.178 C 1202.12 603.048 1199.97 626.534 1199.93 640.58 C 1199.74 660.394 1199.73 680.21 1199.88 700.024 L 847.942 700.006 z"/>
<path transform="translate(0,0)" fill="rgb(6,79,176)" d="M 814.796 699.952 C 815.109 677.368 815.149 654.78 814.916 632.194 C 814.855 606.299 811.329 577.644 831.637 557.797 C 851.807 538.085 878.18 541.56 904.129 541.532 L 979.605 541.513 L 1105.38 541.463 C 1129.56 541.425 1153.8 541.159 1177.96 541.708 C 1203.35 542.474 1225.42 559.774 1230.59 584.95 C 1233.31 598.225 1232.05 611.328 1232.32 624.72 C 1232.83 649.668 1231.51 675.063 1232.2 699.963 L 1199.88 700.024 C 1199.73 680.21 1199.74 660.394 1199.93 640.58 C 1199.97 626.534 1202.12 603.048 1192.38 592.178 C 1187.01 586.131 1179.44 582.486 1171.37 582.056 C 1155.22 581.052 1128.22 581.893 1111.33 581.891 L 993.174 581.885 L 913.854 581.893 C 901.449 581.894 885.476 580.942 873.513 582.336 C 843.181 585.87 847.683 620.923 847.736 642.37 L 847.942 700.006 L 814.796 699.952 z"/>
<path transform="translate(0,0)" fill="rgb(153,211,253)" d="M 705.215 652.569 L 705.048 588.251 C 704.98 545.033 704.727 514.068 732.642 478.066 C 767.578 433.01 805.288 421.841 859.468 421.819 L 1109.98 421.83 L 1175.08 421.825 C 1228.02 421.848 1261.39 422.917 1301.7 462.964 C 1343.44 504.431 1342.14 542.127 1342.01 595.884 L 1341.78 670.355 C 1341.73 676.412 1340.63 694.506 1342.46 698.865 L 1341.41 700.981 L 1340.37 700.159 C 1337.9 694.57 1340.09 685.042 1339.21 678.724 C 1332.03 627.371 1342.91 565.588 1319.38 518.627 C 1302.73 485.536 1273.43 460.566 1238.12 449.379 C 1215.7 442.236 1163.08 444.75 1137.19 444.755 L 998.768 444.787 L 891.821 444.773 C 852.981 444.783 821.253 440.829 785.444 459.355 C 747.722 479.31 721.776 516.056 715.592 558.28 C 712.912 575.42 712.776 653.931 709.783 659.901 C 708.233 657.617 706.674 654.949 705.215 652.569 z"/>
<path transform="translate(0,0)" fill="rgb(13,25,37)" d="M 431.782 784.48 C 414.597 758.476 395.667 732.939 377.812 707.386 C 370.021 696.235 358.457 681.357 351.669 670.13 C 333.488 639.568 328.151 603.049 336.825 568.562 C 345.493 534.411 368.792 504.346 398.981 486.399 C 428.434 468.784 463.688 463.618 496.956 472.042 C 553.472 486.55 575.702 526.978 603.181 572.379 L 645.308 643.456 C 668.198 628.451 687.259 632.651 705.215 652.569 C 706.674 654.949 708.233 657.617 709.783 659.901 C 718.221 672.979 728.35 686.848 736.17 699.763 C 743.848 711.858 748.569 718.647 745.485 733.758 C 743.334 740.064 740.273 747.706 735.131 751.97 C 727.555 758.254 707.185 774.148 698.561 777.678 C 699.737 779.512 704.167 786.7 705.295 787.934 C 748.764 856.607 796.186 923.389 839.088 992.447 C 869.983 1042.18 910.121 1080.86 895.912 1143.67 C 894.375 1150.3 892.775 1156.91 891.113 1163.51 C 904.827 1184.37 926.542 1207.92 920.418 1233.91 C 916.79 1249.31 907.003 1259.48 893.346 1266.58 C 876.197 1273.45 866.769 1272.23 850.077 1266.56 C 843.338 1267.73 814.767 1267.33 806.889 1267.33 L 720.211 1267.26 L 583.836 1267.29 C 561.767 1267.33 528.986 1268.32 507.836 1266.98 C 495.955 1266.31 484.222 1264.01 472.968 1260.14 C 427.753 1244.57 384.52 1198.03 391.882 1145.9 C 394.733 1125.71 411.495 1093.6 419.27 1073.77 C 440.082 1020.69 466.288 968.029 485.123 914.242 C 464 912.427 457.54 907.605 446.241 890.323 C 425.57 857.233 386.07 816.548 431.782 784.48 z"/>
<path transform="translate(0,0)" fill="rgb(253,253,253)" d="M 698.561 777.678 C 699.737 779.512 704.167 786.7 705.295 787.934 C 748.764 856.607 796.186 923.389 839.088 992.447 C 869.983 1042.18 910.121 1080.86 895.912 1143.67 C 894.375 1150.3 892.775 1156.91 891.113 1163.51 C 904.827 1184.37 926.542 1207.92 920.418 1233.91 C 916.79 1249.31 907.003 1259.48 893.346 1266.58 C 876.197 1273.45 866.769 1272.23 850.077 1266.56 C 834.289 1257.54 820.328 1231.59 810.034 1215.32 C 771.631 1212.37 735.353 1195 714.866 1161.37 C 711.243 1155.42 707.068 1149.38 703.235 1143.53 L 668.937 1090.68 C 624.318 1022.81 579.02 953.332 533.526 886.186 C 545.084 878.581 556.596 870.906 568.059 863.159 C 571.171 867.442 574.206 871.779 577.165 876.169 C 581.477 869.271 599.565 856.446 607.707 853.895 L 607.756 853.187 C 616.855 844.225 659.848 817.076 671.957 810.448 L 664.965 799.602 C 675.573 792.215 687.622 784.739 698.561 777.678 z"/>
<path transform="translate(0,0)" fill="rgb(131,145,156)" d="M 671.957 810.448 C 698.626 849.637 724.09 890.579 750.559 929.965 C 761.107 945.662 772.267 964.614 783.202 979.592 C 792.508 982.262 804.311 984.874 810.476 992.444 C 803.411 997.225 791.434 1003.38 783.15 1005.25 L 775.668 1008.49 C 772.548 1013.96 770.937 1015.28 773.952 1021.27 L 774.02 1021.87 C 749.475 1024.52 730.805 1025.01 706.138 1021.13 C 701.682 1020.8 696.143 1019.98 691.614 1019.45 C 676.216 1017.75 652.283 1008.1 643.182 1007.22 C 633.741 995.439 634.035 992.487 647.077 984.141 C 624.833 949.699 597.784 910.86 577.165 876.169 C 581.477 869.271 599.565 856.446 607.707 853.895 L 607.756 853.187 C 616.855 844.225 659.848 817.076 671.957 810.448 z"/>
<path transform="translate(0,0)" fill="rgb(50,135,253)" d="M 705.779 974.001 C 736.79 972.224 753.027 973.799 783.202 979.592 C 792.508 982.262 804.311 984.874 810.476 992.444 C 803.411 997.225 791.434 1003.38 783.15 1005.25 L 775.668 1008.49 C 772.548 1013.96 770.937 1015.28 773.952 1021.27 L 774.02 1021.87 C 749.475 1024.52 730.805 1025.01 706.138 1021.13 C 701.682 1020.8 696.143 1019.98 691.614 1019.45 C 676.216 1017.75 652.283 1008.1 643.182 1007.22 C 633.741 995.439 634.035 992.487 647.077 984.141 C 659.805 979.13 671.267 976.763 684.729 974.953 C 692.267 974.147 698.175 974.085 705.779 974.001 z"/>
<path transform="translate(0,0)" fill="rgb(78,168,253)" d="M 684.729 974.953 C 692.267 974.147 698.175 974.085 705.779 974.001 C 700.528 976.059 693.638 979.381 688.398 981.804 C 680.817 985.308 662.894 988.639 658.599 995.161 C 659.218 1007.43 695.788 1007.56 703.214 1010.82 C 703.85 1016.17 706.872 1015.24 707.123 1020.3 L 706.138 1021.13 C 701.682 1020.8 696.143 1019.98 691.614 1019.45 C 676.216 1017.75 652.283 1008.1 643.182 1007.22 C 633.741 995.439 634.035 992.487 647.077 984.141 C 659.805 979.13 671.267 976.763 684.729 974.953 z"/>
<path transform="translate(0,0)" fill="rgb(153,211,253)" d="M 703.214 1010.82 C 736.664 1013.16 742.098 1013.42 775.668 1008.49 C 772.548 1013.96 770.937 1015.28 773.952 1021.27 L 774.02 1021.87 C 749.475 1024.52 730.805 1025.01 706.138 1021.13 L 707.123 1020.3 C 706.872 1015.24 703.85 1016.17 703.214 1010.82 z"/>
<path transform="translate(0,0)" fill="rgb(98,113,129)" d="M 577.165 876.169 C 581.477 869.271 599.565 856.446 607.707 853.895 L 661.372 937.712 C 667.576 947.478 680.204 965.83 684.729 974.953 C 671.267 976.763 659.805 979.13 647.077 984.141 C 624.833 949.699 597.784 910.86 577.165 876.169 z"/>
<path transform="translate(0,0)" fill="rgb(38,119,242)" d="M 810.476 992.444 L 814.687 999.634 L 823.38 1013.35 C 822.56 1018.64 822.271 1020.18 822.31 1025.52 C 822.388 1036.24 838.724 1061.83 834.737 1069.81 C 836.531 1072.65 838.65 1076.22 840.631 1078.85 C 848.072 1092.17 852.14 1098.65 851.661 1114.25 L 853.307 1118.07 C 852.138 1128.65 850.822 1142.81 848.632 1153.01 C 842.669 1180.75 864.975 1193.9 874.773 1214.96 C 869.75 1216.9 869.219 1217.05 866.07 1221.45 C 856.536 1207.38 848.205 1192.47 838.92 1178.14 C 831.82 1167.17 823.92 1169.51 812.229 1168.75 C 807.431 1168.43 802.828 1168.01 798.131 1167.21 C 781.702 1164.39 765.586 1155.32 756.165 1141.16 C 742.194 1120.17 728.264 1098.1 714.221 1077.08 C 709.993 1069.43 704.948 1061.29 700.963 1053.59 C 696.926 1045.79 681.912 1028.55 683.278 1021.2 C 686.254 1019.67 686.918 1020.41 690.868 1020.72 L 691.614 1019.45 C 696.143 1019.98 701.682 1020.8 706.138 1021.13 C 730.805 1025.01 749.475 1024.52 774.02 1021.87 L 773.952 1021.27 C 770.937 1015.28 772.548 1013.96 775.668 1008.49 L 783.15 1005.25 C 791.434 1003.38 803.411 997.225 810.476 992.444 z"/>
<path transform="translate(0,0)" fill="rgb(153,211,253)" d="M 810.476 992.444 L 814.687 999.634 L 823.38 1013.35 C 822.56 1018.64 822.271 1020.18 822.31 1025.52 C 822.388 1036.24 838.724 1061.83 834.737 1069.81 C 836.531 1072.65 838.65 1076.22 840.631 1078.85 C 848.072 1092.17 852.14 1098.65 851.661 1114.25 C 848.701 1118.79 844.161 1123 838.304 1121.69 C 826.243 1119 828.404 1105.97 823.547 1098.34 C 807.275 1072.77 791.06 1046.91 774.02 1021.87 L 773.952 1021.27 C 770.937 1015.28 772.548 1013.96 775.668 1008.49 L 783.15 1005.25 C 791.434 1003.38 803.411 997.225 810.476 992.444 z"/>
<path transform="translate(0,0)" fill="rgb(38,119,242)" d="M 814.687 999.634 L 823.38 1013.35 C 822.56 1018.64 822.271 1020.18 822.31 1025.52 C 822.388 1036.24 838.724 1061.83 834.737 1069.81 C 824.702 1054.21 809.438 1028.76 798.841 1014.25 C 805.762 1009.44 809.767 1006.75 814.687 999.634 z"/>
<path transform="translate(0,0)" fill="rgb(199,243,251)" d="M 783.15 1005.25 C 790.981 1005.99 795.133 1005.47 798.272 1014.07 C 792.267 1016.32 780.308 1021.07 773.952 1021.27 C 770.937 1015.28 772.548 1013.96 775.668 1008.49 L 783.15 1005.25 z"/>
<path transform="translate(0,0)" fill="rgb(6,79,176)" d="M 643.182 1007.22 C 652.283 1008.1 676.216 1017.75 691.614 1019.45 L 690.868 1020.72 C 686.918 1020.41 686.254 1019.67 683.278 1021.2 C 681.912 1028.55 696.926 1045.79 700.963 1053.59 C 704.948 1061.29 709.993 1069.43 714.221 1077.08 C 728.264 1098.1 742.194 1120.17 756.165 1141.16 C 765.586 1155.32 781.702 1164.39 798.131 1167.21 C 802.828 1168.01 807.431 1168.43 812.229 1168.75 C 823.92 1169.51 831.82 1167.17 838.92 1178.14 C 848.205 1192.47 856.536 1207.38 866.07 1221.45 C 869.219 1217.05 869.75 1216.9 874.773 1214.96 L 875.363 1215.9 C 878.118 1220.37 879.261 1225.22 882.381 1227.6 C 885.346 1228.24 887.291 1228.52 890.316 1228.91 L 895.92 1228.98 C 891.12 1240.06 880.172 1249.51 867.327 1246.39 C 849.335 1246.39 832.131 1194.78 820.519 1192.54 C 797.166 1188.06 771.667 1187.1 751.416 1167.43 C 735.344 1151.82 720.178 1124.59 707.227 1104.89 L 643.182 1007.22 z"/>
<path transform="translate(0,0)" fill="rgb(38,119,242)" d="M 874.773 1214.96 L 875.363 1215.9 C 878.118 1220.37 879.261 1225.22 882.381 1227.6 C 885.346 1228.24 887.291 1228.52 890.316 1228.91 C 880.133 1229.63 873.129 1229.48 866.07 1221.45 C 869.219 1217.05 869.75 1216.9 874.773 1214.96 z"/>
<path transform="translate(0,0)" fill="rgb(78,168,253)" d="M 823.38 1013.35 C 829.562 1022.49 835.584 1031.72 841.446 1041.06 C 861.816 1070.47 879.778 1094.35 873.352 1133.06 C 869.618 1155.55 859.305 1159.02 873.813 1181.61 C 884.394 1198.1 898.393 1209.37 895.92 1228.98 L 890.316 1228.91 C 887.291 1228.52 885.346 1228.24 882.381 1227.6 C 879.261 1225.22 878.118 1220.37 875.363 1215.9 L 874.773 1214.96 C 864.975 1193.9 842.669 1180.75 848.632 1153.01 C 850.822 1142.81 852.138 1128.65 853.307 1118.07 L 851.661 1114.25 C 852.14 1098.65 848.072 1092.17 840.631 1078.85 C 838.65 1076.22 836.531 1072.65 834.737 1069.81 C 838.724 1061.83 822.388 1036.24 822.31 1025.52 C 822.271 1020.18 822.56 1018.64 823.38 1013.35 z"/>
<path transform="translate(0,0)" fill="rgb(50,135,253)" d="M 823.38 1013.35 C 829.562 1022.49 835.584 1031.72 841.446 1041.06 L 841.618 1044.63 C 838.692 1081.4 859.672 1083.98 853.307 1118.07 L 851.661 1114.25 C 852.14 1098.65 848.072 1092.17 840.631 1078.85 C 838.65 1076.22 836.531 1072.65 834.737 1069.81 C 838.724 1061.83 822.388 1036.24 822.31 1025.52 C 822.271 1020.18 822.56 1018.64 823.38 1013.35 z"/>
<path transform="translate(0,0)" fill="rgb(182,193,202)" d="M 664.965 799.602 L 671.957 810.448 C 659.848 817.076 616.855 844.225 607.756 853.187 C 605.044 848.713 603.598 846.561 600.324 842.494 C 621.747 828.012 643.295 813.714 664.965 799.602 z"/>
<path transform="translate(0,0)" fill="rgb(131,145,156)" d="M 568.059 863.159 C 578.676 856.775 589.854 849.272 600.324 842.494 C 603.598 846.561 605.044 848.713 607.756 853.187 L 607.707 853.895 C 599.565 856.446 581.477 869.271 577.165 876.169 C 574.206 871.779 571.171 867.442 568.059 863.159 z"/>
<path transform="translate(0,0)" fill="rgb(30,43,59)" d="M 402.008 520.293 C 403.601 518.996 405.236 517.751 406.911 516.561 C 425.435 503.497 450.865 495.959 473.463 499.839 C 484.714 499.001 503.947 512.435 512.166 519.612 C 534.864 539.434 549.064 567.911 565.683 592.749 C 586.642 624.073 605.488 656.321 624.557 688.723 C 611.28 697.425 511.234 765.546 507.378 766.034 C 503.364 766.797 501.438 770.244 497.453 770.093 C 473.462 745.745 451.834 705.907 431.532 677.533 C 416.198 656.103 400.105 632.365 387.901 609.105 C 380.41 594.827 374.515 571.031 374.194 554.803 C 374.749 545.403 394.131 525.671 402.008 520.293 z"/>
<path transform="translate(0,0)" fill="rgb(66,83,104)" d="M 402.008 520.293 C 403.601 518.996 405.236 517.751 406.911 516.561 C 425.435 503.497 450.865 495.959 473.463 499.839 C 521.198 518.816 530.842 541.749 557.306 583.119 L 605.162 659.503 C 609.764 666.998 621.17 681.129 619.502 689.388 C 617.634 692.234 607.987 697.2 603.614 700.819 L 599.295 693.891 C 594.077 685.483 585.017 674.09 578.392 663.632 L 538.473 601.199 C 526.382 582.39 515.202 562.007 499.073 546.446 C 469.439 517.856 440.898 513.29 402.008 520.293 z"/>
<path transform="translate(0,0)" fill="rgb(66,83,104)" d="M 624.557 688.723 C 637.791 679.839 651.521 669.607 665.756 662.747 C 668.838 661.261 678.251 662.867 680.482 665.491 C 693.812 681.165 704.667 700.068 716.181 717.101 C 721.549 725.042 719.406 731.479 712.425 736.979 L 700.27 744.735 C 694.971 748.905 689.029 752.828 683.306 756.43 C 632.761 788.252 583.842 823.355 533.07 854.73 C 532.906 854.876 532.754 855.036 532.58 855.169 C 524.178 861.607 514.753 866.913 505.913 872.726 C 499.973 876.632 494.164 882.02 487.675 884.889 C 485.334 885.924 482.956 886.517 480.391 885.988 C 468.727 883.581 446.984 842.092 439.333 830.757 C 436.639 823.92 436.672 815.308 442.787 810.588 C 462.395 795.455 485.114 781.4 505.907 768.029 L 507.378 766.034 C 511.234 765.546 611.28 697.425 624.557 688.723 z"/>
<path transform="translate(0,0)" fill="rgb(43,59,79)" d="M 439.333 830.757 C 436.639 823.92 436.672 815.308 442.787 810.588 C 462.395 795.455 485.114 781.4 505.907 768.029 C 501.74 779.284 495.001 783.747 494.85 795.741 L 493.679 796.495 C 503.711 811.573 521.927 842.855 533.07 854.73 C 532.906 854.876 532.754 855.036 532.58 855.169 C 524.178 861.607 514.753 866.913 505.913 872.726 C 499.973 876.632 494.164 882.02 487.675 884.889 C 485.334 885.924 482.956 886.517 480.391 885.988 C 468.727 883.581 446.984 842.092 439.333 830.757 z"/>
<path transform="translate(0,0)" fill="rgb(66,83,104)" d="M 439.333 830.757 C 436.639 823.92 436.672 815.308 442.787 810.588 C 462.395 795.455 485.114 781.4 505.907 768.029 C 501.74 779.284 495.001 783.747 494.85 795.741 L 493.679 796.495 C 481.835 804.823 451.376 825.533 439.333 830.757 z"/>
<path transform="translate(0,0)" fill="rgb(98,113,129)" d="M 624.557 688.723 C 637.791 679.839 651.521 669.607 665.756 662.747 C 668.838 661.261 678.251 662.867 680.482 665.491 C 693.812 681.165 704.667 700.068 716.181 717.101 C 721.549 725.042 719.406 731.479 712.425 736.979 C 708.406 734.391 707.498 732.98 705.018 728.969 C 702.356 719.95 680.661 687.473 673.62 682.933 C 667.978 679.295 619.983 713.292 613.302 717.602 C 573.565 743.243 534.646 770.275 494.85 795.741 C 495.001 783.747 501.74 779.284 505.907 768.029 L 507.378 766.034 C 511.234 765.546 611.28 697.425 624.557 688.723 z"/>
<path transform="translate(0,0)" fill="rgb(66,83,104)" d="M 705.018 728.969 C 707.498 732.98 708.406 734.391 712.425 736.979 L 700.27 744.735 C 700.554 739.864 703.258 733.676 705.018 728.969 z"/>
<path transform="translate(0,0)" fill="rgb(254,188,34)" d="M 1342.46 698.865 C 1349.03 686.343 1356.09 669.939 1362.27 656.716 L 1396.53 583.845 C 1404.9 565.941 1416.6 535.767 1429.41 521.202 C 1443.55 505.127 1471.74 501.007 1491.5 509.81 C 1520.75 522.838 1550.3 537.05 1579.82 550.434 L 1654.5 584.478 C 1674.17 593.555 1693.72 599.787 1708.57 615.962 C 1722.3 630.115 1727.43 659.372 1719.57 676.874 C 1684.5 754.929 1644.34 832.997 1609.73 911.044 C 1600.64 928.443 1592.29 946.919 1583.96 964.744 C 1579.61 973.755 1564.12 1004.3 1561.51 1012.11 L 1439.75 1267.18 C 1431.77 1266.76 1420.38 1267.15 1412.18 1267.28 L 1376.14 1267.02 C 1359.76 1267.24 1343.39 1267.35 1327.01 1267.34 L 1101.76 1267.13 L 1080.5 1267.36 L 1301.77 786.966 C 1307.52 777.037 1318.63 750.678 1323.86 739.086 C 1326.95 734.092 1338.27 707.917 1341.41 700.981 L 1342.46 698.865 z"/>
<path transform="translate(0,0)" fill="url(#Gradient1)" d="M 1342.46 698.865 C 1349.03 686.343 1356.09 669.939 1362.27 656.716 L 1396.53 583.845 C 1404.9 565.941 1416.6 535.767 1429.41 521.202 C 1443.55 505.127 1471.74 501.007 1491.5 509.81 C 1520.75 522.838 1550.3 537.05 1579.82 550.434 L 1654.5 584.478 C 1674.17 593.555 1693.72 599.787 1708.57 615.962 C 1710.68 622.416 1710.91 623.476 1711.53 630.227 L 1710.42 632.344 C 1706.96 631.315 1702.15 626.916 1698.3 625.019 C 1635 593.8 1570.38 565.241 1506.37 535.523 C 1497 531.175 1486.98 526.309 1476.98 523.454 C 1472.09 522.058 1458.81 524.589 1454.21 527.683 C 1445.79 532.51 1440.1 538.202 1435.77 547.109 C 1428.56 561.942 1421.74 577.174 1414.78 592.139 L 1369.28 690.805 L 1241.15 968.682 L 1142.52 1180.61 C 1133.38 1200.6 1124.08 1220.52 1114.64 1240.37 C 1112.27 1245.37 1103.26 1263.02 1101.76 1267.13 L 1080.5 1267.36 L 1301.77 786.966 C 1307.52 777.037 1318.63 750.678 1323.86 739.086 C 1326.95 734.092 1338.27 707.917 1341.41 700.981 L 1342.46 698.865 z"/>
<path transform="translate(0,0)" fill="rgb(169,108,6)" d="M 1708.57 615.962 C 1722.3 630.115 1727.43 659.372 1719.57 676.874 C 1684.5 754.929 1644.34 832.997 1609.73 911.044 C 1600.64 928.443 1592.29 946.919 1583.96 964.744 C 1579.61 973.755 1564.12 1004.3 1561.51 1012.11 L 1439.75 1267.18 C 1431.77 1266.76 1420.38 1267.15 1412.18 1267.28 C 1414.98 1265.57 1418.54 1255.1 1421.7 1250.43 C 1424.54 1247.21 1430.64 1232.83 1431.91 1228.7 C 1434.1 1222.71 1443.52 1202.69 1446.64 1197.19 C 1449.11 1194.32 1456.8 1179.43 1457.24 1175.28 C 1459.19 1169.78 1468.8 1150.78 1471.76 1144.57 C 1475.18 1139.87 1480.06 1128.88 1482.16 1123.31 L 1496.91 1091.87 C 1499.78 1087.81 1506.28 1075.15 1507.33 1070.44 C 1512.48 1060.41 1517.23 1049.56 1521.94 1039.27 C 1525.06 1033.95 1529.2 1024.11 1531.89 1018.18 C 1535.01 1013.49 1545.78 992.023 1546.15 986.8 C 1548.49 984.484 1555.09 970.141 1556.97 966.322 C 1562.19 955.895 1567.14 945.334 1571.81 934.649 C 1575.05 927.608 1578.43 920.626 1581.92 913.706 C 1586.23 906.29 1593.56 890.279 1597.05 882.294 C 1600.33 874.761 1603.18 868.524 1606.93 861.233 C 1612.14 851.603 1616.95 840.078 1621.46 829.975 C 1623.77 825.833 1629.55 812.889 1631.02 808.765 C 1633.46 805.603 1645.24 780.028 1647.6 775.05 L 1689.53 685.978 C 1696.44 671.178 1712.46 645.247 1711.53 630.227 C 1710.91 623.476 1710.68 622.416 1708.57 615.962 z"/>
<path transform="translate(0,0)" fill="rgb(92,77,38)" d="M 1446.64 1197.19 C 1438.56 1192.48 1424.95 1186.44 1416.01 1182.17 L 1361.7 1156.23 C 1353.05 1152.1 1344.02 1148.06 1335.61 1143.58 C 1323.25 1137.11 1331.45 1117.04 1344.41 1122.27 C 1369.69 1132.47 1394.14 1146.11 1418.96 1157.45 C 1431.24 1163.06 1443.66 1170.09 1456.07 1174.84 L 1457.24 1175.28 C 1456.8 1179.43 1449.11 1194.32 1446.64 1197.19 z"/>
<path transform="translate(0,0)" fill="rgb(92,77,38)" d="M 1521.94 1039.27 C 1506.25 1032.27 1411.08 988.683 1406.58 982.023 C 1404.7 979.236 1404.09 974.833 1405.14 971.643 C 1406.15 968.591 1409.47 965.508 1412.58 964.66 C 1415.22 963.936 1417.45 964.173 1420.01 965.049 C 1433.17 969.545 1446.06 976.909 1458.63 982.943 L 1531.89 1018.18 C 1529.2 1024.11 1525.06 1033.95 1521.94 1039.27 z"/>
<path transform="translate(0,0)" fill="rgb(92,77,38)" d="M 1597.05 882.294 C 1560.81 866.968 1523.85 846.86 1488.08 830.15 C 1474.51 823.806 1481.39 802.807 1497.46 809.211 C 1510.59 814.441 1522.97 820.821 1535.71 826.949 L 1606.93 861.233 C 1603.18 868.524 1600.33 874.761 1597.05 882.294 z"/>
<path transform="translate(0,0)" fill="rgb(92,77,38)" d="M 1421.7 1250.43 C 1410.15 1244.74 1357.05 1221.9 1353.21 1213.82 C 1351.85 1210.95 1351.87 1207.26 1353 1204.32 C 1354.09 1201.51 1356.6 1198.97 1359.49 1198 C 1361.72 1197.25 1363.14 1197.08 1365.46 1197.58 C 1377.37 1200.12 1417.21 1222.11 1431.91 1228.7 C 1430.64 1232.83 1424.54 1247.21 1421.7 1250.43 z"/>
<path transform="translate(0,0)" fill="rgb(92,77,38)" d="M 1471.76 1144.57 C 1458.91 1138.48 1408.68 1118 1403.33 1107.15 C 1402.15 1104.73 1401.82 1102.1 1402.92 1099.57 C 1404.28 1096.47 1407.68 1093.71 1410.9 1092.75 C 1419.35 1090.23 1471.25 1118.19 1482.16 1123.31 C 1480.06 1128.88 1475.18 1139.87 1471.76 1144.57 z"/>
<path transform="translate(0,0)" fill="rgb(92,77,38)" d="M 1496.91 1091.87 C 1483.11 1085.11 1437.87 1066.92 1430.49 1056.99 C 1428.61 1054.44 1427.41 1051.17 1428.19 1047.99 C 1429.02 1044.64 1432.04 1041.8 1435.16 1040.5 C 1437.24 1039.64 1438.69 1039.39 1440.92 1039.8 C 1452.62 1041.96 1492.94 1064.02 1507.33 1070.44 C 1506.28 1075.15 1499.78 1087.81 1496.91 1091.87 z"/>
<path transform="translate(0,0)" fill="rgb(92,77,38)" d="M 1546.15 986.8 C 1535.68 982.18 1482.82 959.468 1479.46 951.83 C 1478.16 948.877 1478.03 945.897 1479.06 942.86 C 1480.02 940.04 1482.44 937.549 1485.24 936.48 C 1487.73 935.531 1489.88 935.333 1492.47 935.979 C 1506.62 939.509 1542.15 959.014 1556.97 966.322 C 1555.09 970.141 1548.49 984.484 1546.15 986.8 z"/>
<path transform="translate(0,0)" fill="rgb(92,77,38)" d="M 1571.81 934.649 C 1560.75 929.258 1508.58 907.255 1504.6 899.021 C 1503.18 896.158 1503.13 892.809 1504.45 889.899 C 1506.94 884.271 1513.84 881.581 1519.31 883.881 C 1540.31 892.704 1561.46 903.672 1581.92 913.706 C 1578.43 920.626 1575.05 927.608 1571.81 934.649 z"/>
<path transform="translate(0,0)" fill="rgb(92,77,38)" d="M 1621.46 829.975 C 1609.09 824.204 1559.74 803.992 1554.56 793.585 C 1553.21 790.873 1552.98 788.238 1554.17 785.434 C 1555.36 782.642 1558.59 780.188 1561.39 779.226 C 1570.46 776.11 1619.1 802.93 1631.02 808.765 C 1629.55 812.889 1623.77 825.833 1621.46 829.975 z"/>
<path transform="translate(0,0)" fill="rgb(92,77,38)" d="M 1327.01 1267.34 C 1323.64 1233.38 1361.56 1261.13 1376.14 1267.02 C 1359.76 1267.24 1343.39 1267.35 1327.01 1267.34 z"/>
<path transform="translate(0,0)" fill="rgb(38,119,242)" d="M 1494.71 700.143 C 1491.93 695.974 1489.61 692.188 1487.78 687.479 C 1483.06 675.434 1483.37 661.997 1488.64 650.181 C 1493.98 638.698 1503.66 629.798 1515.55 625.427 C 1541.27 615.901 1566.54 628.95 1575.42 654.52 L 1577.99 662.142 C 1581.17 664.016 1582.84 664.878 1583.79 668.82 C 1590.09 694.897 1573.57 720.564 1547.62 727.166 C 1528.75 731.967 1500.91 723.577 1494.58 703.018 C 1494.33 702.198 1494.58 700.999 1494.71 700.143 z"/>
<path transform="translate(0,0)" fill="rgb(169,108,6)" d="M 1494.71 700.143 C 1491.93 695.974 1489.61 692.188 1487.78 687.479 C 1483.06 675.434 1483.37 661.997 1488.64 650.181 C 1493.98 638.698 1503.66 629.798 1515.55 625.427 C 1541.27 615.901 1566.54 628.95 1575.42 654.52 C 1531.97 615.769 1477.91 661.667 1505.64 709.271 C 1500.15 705.843 1499.11 704.671 1494.71 700.143 z"/>
<path transform="translate(0,0)" fill="rgb(252,217,98)" d="M 1577.99 662.142 C 1581.17 664.016 1582.84 664.878 1583.79 668.82 C 1590.09 694.897 1573.57 720.564 1547.62 727.166 C 1528.75 731.967 1500.91 723.577 1494.58 703.018 C 1494.33 702.198 1494.58 700.999 1494.71 700.143 C 1499.11 704.671 1500.15 705.843 1505.64 709.271 C 1540.02 732.654 1583.02 705.152 1577.99 662.142 z"/>
<path transform="translate(0,0)" fill="rgb(66,83,104)" d="M 446.241 890.323 C 457.54 907.605 464 912.427 485.123 914.242 C 466.288 968.029 440.082 1020.69 419.27 1073.77 C 411.495 1093.6 394.733 1125.71 391.882 1145.9 C 384.52 1198.03 427.753 1244.57 472.968 1260.14 C 484.222 1264.01 495.955 1266.31 507.836 1266.98 C 528.986 1268.32 561.767 1267.33 583.836 1267.29 L 720.211 1267.26 L 806.889 1267.33 C 814.767 1267.33 843.338 1267.73 850.077 1266.56 C 866.769 1272.23 876.197 1273.45 893.346 1266.58 C 895.282 1267.36 1074.38 1268.32 1080.5 1267.36 L 1101.76 1267.13 L 1327.01 1267.34 C 1343.39 1267.35 1359.76 1267.24 1376.14 1267.02 L 1412.18 1267.28 C 1420.38 1267.15 1431.77 1266.76 1439.75 1267.18 L 1561.51 1012.11 C 1564.12 1004.3 1579.61 973.755 1583.96 964.744 C 1592.29 946.919 1600.64 928.443 1609.73 911.044 C 1627.4 946.68 1647.09 996.568 1662.99 1033.89 L 1688.69 1095.04 C 1696.84 1114.59 1707.57 1135.04 1706.01 1156.73 C 1704.64 1166.08 1704.85 1174.39 1703.09 1183.71 C 1688.62 1231.55 1667.89 1263.52 1622.87 1288.24 C 1582.44 1310.45 1545.93 1307.95 1501.92 1307.91 L 1408.41 1307.89 L 1108.02 1307.78 L 703.383 1307.89 L 572.312 1307.97 C 549.61 1307.99 522.745 1308.67 500.332 1307.74 C 484.935 1307.19 469.682 1304.57 454.981 1299.96 C 426.178 1290.99 399.119 1273.63 379.328 1250.75 C 372.598 1242.98 368.931 1236.42 363.224 1229.13 C 360.936 1222.77 351.969 1208.62 349.151 1199.96 C 346.784 1192.68 344.322 1178.96 341.913 1173.57 C 340.193 1166.75 342.957 1139.28 345.374 1132.06 C 349.382 1120.08 355.561 1105.78 360.474 1093.86 C 370.034 1070.18 379.952 1046.64 390.226 1023.25 C 409.246 979.863 427.725 934.138 446.241 890.323 z"/>
<path transform="translate(0,0)" fill="rgb(13,25,37)" d="M 1561.51 1012.11 C 1564.47 1023.36 1576.86 1050.97 1581.95 1063.04 L 1624.78 1164.3 C 1629.25 1174.8 1639.5 1196.35 1643 1205.88 C 1611.43 1264.56 1547.84 1270.42 1489.47 1267.35 C 1473.3 1266.5 1456.11 1267.78 1439.75 1267.18 L 1561.51 1012.11 z"/>
<path transform="translate(0,0)" fill="rgb(30,43,59)" d="M 1583.96 964.744 C 1597.16 999.121 1613.42 1033.24 1626.93 1067.62 C 1646.92 1118.5 1674.33 1151.96 1643 1205.88 C 1639.5 1196.35 1629.25 1174.8 1624.78 1164.3 L 1581.95 1063.04 C 1576.86 1050.97 1564.47 1023.36 1561.51 1012.11 C 1564.12 1004.3 1579.61 973.755 1583.96 964.744 z"/>
</g>
</svg>
